<mxfile host="Electron" modified="2023-07-11T07:37:27.737Z" agent="Mozilla/5.0 (Windows NT 10.0; Win64; x64) AppleWebKit/537.36 (KHTML, like Gecko) draw.io/21.2.8 Chrome/112.0.5615.165 Electron/24.2.0 Safari/537.36" etag="rfjuUgV-CmwxRAAb6Mhl" version="21.2.8" type="device">
  <diagram name="Pagina-1" id="ZosER6FYlhUaswWea86L">
    <mxGraphModel dx="847" dy="1329" grid="1" gridSize="10" guides="1" tooltips="1" connect="1" arrows="1" fold="1" page="1" pageScale="1" pageWidth="291" pageHeight="413" math="0" shadow="0">
      <root>
        <mxCell id="0" />
        <mxCell id="1" parent="0" />
        <mxCell id="JAHX9usTtRDMZfwZEEHY-4" style="edgeStyle=orthogonalEdgeStyle;rounded=0;orthogonalLoop=1;jettySize=auto;html=1;exitX=1;exitY=0.5;exitDx=0;exitDy=0;" parent="1" target="JAHX9usTtRDMZfwZEEHY-2" edge="1">
          <mxGeometry relative="1" as="geometry">
            <mxPoint x="200" y="160" as="sourcePoint" />
          </mxGeometry>
        </mxCell>
        <mxCell id="JAHX9usTtRDMZfwZEEHY-15" style="edgeStyle=orthogonalEdgeStyle;rounded=0;orthogonalLoop=1;jettySize=auto;html=1;" parent="1" source="JAHX9usTtRDMZfwZEEHY-2" target="JAHX9usTtRDMZfwZEEHY-5" edge="1">
          <mxGeometry relative="1" as="geometry" />
        </mxCell>
        <mxCell id="JAHX9usTtRDMZfwZEEHY-2" value="Menu" style="ellipse;whiteSpace=wrap;html=1;aspect=fixed;" parent="1" vertex="1">
          <mxGeometry x="275" y="120" width="80" height="80" as="geometry" />
        </mxCell>
        <mxCell id="JAHX9usTtRDMZfwZEEHY-22" style="edgeStyle=orthogonalEdgeStyle;rounded=0;orthogonalLoop=1;jettySize=auto;html=1;" parent="1" source="JAHX9usTtRDMZfwZEEHY-5" target="JAHX9usTtRDMZfwZEEHY-2" edge="1">
          <mxGeometry relative="1" as="geometry">
            <mxPoint x="578" y="280" as="targetPoint" />
            <Array as="points">
              <mxPoint x="578" y="270" />
              <mxPoint x="315" y="270" />
            </Array>
          </mxGeometry>
        </mxCell>
        <mxCell id="JAHX9usTtRDMZfwZEEHY-5" value="Play" style="ellipse;whiteSpace=wrap;html=1;aspect=fixed;" parent="1" vertex="1">
          <mxGeometry x="538" y="120" width="80" height="80" as="geometry" />
        </mxCell>
        <mxCell id="JAHX9usTtRDMZfwZEEHY-7" value="Tiles bianche" style="rounded=0;whiteSpace=wrap;html=1;" parent="1" vertex="1">
          <mxGeometry x="128" y="-300" width="264" height="60" as="geometry" />
        </mxCell>
        <mxCell id="JAHX9usTtRDMZfwZEEHY-8" value="" style="triangle;whiteSpace=wrap;html=1;" parent="1" vertex="1">
          <mxGeometry x="402" y="-294" width="60" height="50" as="geometry" />
        </mxCell>
        <mxCell id="JAHX9usTtRDMZfwZEEHY-9" value="" style="triangle;whiteSpace=wrap;html=1;rotation=-180;" parent="1" vertex="1">
          <mxGeometry x="57" y="-297" width="60" height="54" as="geometry" />
        </mxCell>
        <mxCell id="JAHX9usTtRDMZfwZEEHY-10" value="Customization" style="text;html=1;align=center;verticalAlign=middle;resizable=0;points=[];autosize=1;strokeColor=none;fillColor=none;" parent="1" vertex="1">
          <mxGeometry x="127" y="-400" width="100" height="30" as="geometry" />
        </mxCell>
        <mxCell id="JAHX9usTtRDMZfwZEEHY-11" value="Background" style="rounded=0;whiteSpace=wrap;html=1;" parent="1" vertex="1">
          <mxGeometry x="127.5" y="-230" width="264" height="60" as="geometry" />
        </mxCell>
        <mxCell id="JAHX9usTtRDMZfwZEEHY-13" value="PLAY" style="rounded=0;whiteSpace=wrap;html=1;" parent="1" vertex="1">
          <mxGeometry x="-24" y="-73" width="264" height="60" as="geometry" />
        </mxCell>
        <mxCell id="JAHX9usTtRDMZfwZEEHY-16" value="" style="triangle;whiteSpace=wrap;html=1;rotation=-180;" parent="1" vertex="1">
          <mxGeometry x="57" y="-224" width="60" height="54" as="geometry" />
        </mxCell>
        <mxCell id="JAHX9usTtRDMZfwZEEHY-17" value="" style="triangle;whiteSpace=wrap;html=1;" parent="1" vertex="1">
          <mxGeometry x="402" y="-222" width="60" height="50" as="geometry" />
        </mxCell>
        <mxCell id="JAHX9usTtRDMZfwZEEHY-27" value="&lt;h1&gt;&lt;span style=&quot;background-color: initial;&quot;&gt;&lt;font style=&quot;font-size: 36px;&quot;&gt;Titolo&lt;/font&gt;&lt;/span&gt;&lt;br&gt;&lt;/h1&gt;" style="text;html=1;strokeColor=none;fillColor=none;spacing=5;spacingTop=-20;whiteSpace=wrap;overflow=hidden;rounded=0;" parent="1" vertex="1">
          <mxGeometry x="-133" y="-450" width="190" height="63" as="geometry" />
        </mxCell>
        <mxCell id="JAHX9usTtRDMZfwZEEHY-28" value="Light" style="rounded=0;whiteSpace=wrap;html=1;" parent="1" vertex="1">
          <mxGeometry x="127.5" y="-160" width="264" height="60" as="geometry" />
        </mxCell>
        <mxCell id="JAHX9usTtRDMZfwZEEHY-29" value="" style="triangle;whiteSpace=wrap;html=1;rotation=-180;" parent="1" vertex="1">
          <mxGeometry x="57" y="-154" width="60" height="54" as="geometry" />
        </mxCell>
        <mxCell id="JAHX9usTtRDMZfwZEEHY-30" value="" style="triangle;whiteSpace=wrap;html=1;" parent="1" vertex="1">
          <mxGeometry x="402" y="-152" width="60" height="50" as="geometry" />
        </mxCell>
        <mxCell id="JAHX9usTtRDMZfwZEEHY-31" value="A == move camera left&lt;br&gt;D == move camera right&lt;br&gt;R = camera height up&lt;br&gt;&amp;nbsp; F = lower height camera&lt;br&gt;&amp;nbsp;W = zoom in&lt;br&gt;S = zoom out&lt;br&gt;Click = select tile&lt;br&gt;(hover mouse = tile glow)" style="text;html=1;strokeColor=none;fillColor=none;align=center;verticalAlign=middle;whiteSpace=wrap;rounded=0;" parent="1" vertex="1">
          <mxGeometry x="490" width="200" height="110" as="geometry" />
        </mxCell>
        <mxCell id="JAHX9usTtRDMZfwZEEHY-36" value="MAH JONG&lt;br&gt;&lt;br&gt;&lt;br&gt;&lt;br&gt;&lt;br&gt;&lt;br&gt;" style="whiteSpace=wrap;html=1;aspect=fixed;" parent="1" vertex="1">
          <mxGeometry x="-190" y="-350" width="223" height="223" as="geometry" />
        </mxCell>
        <mxCell id="JAHX9usTtRDMZfwZEEHY-38" value="" style="shape=cube;whiteSpace=wrap;html=1;boundedLbl=1;backgroundOutline=1;darkOpacity=0.05;darkOpacity2=0.1;" parent="1" vertex="1">
          <mxGeometry x="-145" y="-230" width="120" height="80" as="geometry" />
        </mxCell>
        <mxCell id="JAHX9usTtRDMZfwZEEHY-39" value="Forma struttura" style="rounded=0;whiteSpace=wrap;html=1;" parent="1" vertex="1">
          <mxGeometry x="128" y="-370" width="264" height="60" as="geometry" />
        </mxCell>
        <mxCell id="JAHX9usTtRDMZfwZEEHY-40" value="" style="triangle;whiteSpace=wrap;html=1;rotation=-180;" parent="1" vertex="1">
          <mxGeometry x="57.5" y="-364" width="60" height="54" as="geometry" />
        </mxCell>
        <mxCell id="JAHX9usTtRDMZfwZEEHY-41" value="" style="triangle;whiteSpace=wrap;html=1;" parent="1" vertex="1">
          <mxGeometry x="402.5" y="-362" width="60" height="50" as="geometry" />
        </mxCell>
        <mxCell id="RC5CroMytO5CbKUsDzlH-8" value="Click" style="edgeStyle=orthogonalEdgeStyle;rounded=0;orthogonalLoop=1;jettySize=auto;html=1;" parent="1" source="RC5CroMytO5CbKUsDzlH-5" target="RC5CroMytO5CbKUsDzlH-6" edge="1">
          <mxGeometry relative="1" as="geometry" />
        </mxCell>
        <mxCell id="RC5CroMytO5CbKUsDzlH-5" value="0: No piece selected" style="ellipse;whiteSpace=wrap;html=1;aspect=fixed;" parent="1" vertex="1">
          <mxGeometry x="-150" y="370" width="80" height="80" as="geometry" />
        </mxCell>
        <mxCell id="RC5CroMytO5CbKUsDzlH-9" value="Click" style="edgeStyle=orthogonalEdgeStyle;rounded=0;orthogonalLoop=1;jettySize=auto;html=1;" parent="1" source="RC5CroMytO5CbKUsDzlH-6" target="RC5CroMytO5CbKUsDzlH-7" edge="1">
          <mxGeometry relative="1" as="geometry" />
        </mxCell>
        <mxCell id="RC5CroMytO5CbKUsDzlH-6" value="1: 1 piece selected&lt;br&gt;(highlight)" style="ellipse;whiteSpace=wrap;html=1;aspect=fixed;" parent="1" vertex="1">
          <mxGeometry x="35" y="370" width="80" height="80" as="geometry" />
        </mxCell>
        <mxCell id="RC5CroMytO5CbKUsDzlH-10" value="dT" style="edgeStyle=orthogonalEdgeStyle;rounded=0;orthogonalLoop=1;jettySize=auto;html=1;entryX=1;entryY=0.5;entryDx=0;entryDy=0;" parent="1" source="RC5CroMytO5CbKUsDzlH-7" target="RC5CroMytO5CbKUsDzlH-12" edge="1">
          <mxGeometry relative="1" as="geometry">
            <Array as="points">
              <mxPoint x="300" y="410" />
              <mxPoint x="300" y="620" />
            </Array>
          </mxGeometry>
        </mxCell>
        <mxCell id="RC5CroMytO5CbKUsDzlH-14" value="dT" style="edgeStyle=orthogonalEdgeStyle;rounded=0;orthogonalLoop=1;jettySize=auto;html=1;entryX=1;entryY=0.5;entryDx=0;entryDy=0;" parent="1" source="RC5CroMytO5CbKUsDzlH-7" target="RC5CroMytO5CbKUsDzlH-13" edge="1">
          <mxGeometry relative="1" as="geometry">
            <Array as="points">
              <mxPoint x="235" y="510" />
            </Array>
          </mxGeometry>
        </mxCell>
        <mxCell id="RC5CroMytO5CbKUsDzlH-7" value="2: 2 pieces selected&lt;br&gt;(highlight)" style="ellipse;whiteSpace=wrap;html=1;aspect=fixed;" parent="1" vertex="1">
          <mxGeometry x="195" y="370" width="80" height="80" as="geometry" />
        </mxCell>
        <mxCell id="RC5CroMytO5CbKUsDzlH-16" value="dT" style="edgeStyle=orthogonalEdgeStyle;rounded=0;orthogonalLoop=1;jettySize=auto;html=1;entryX=1;entryY=0.5;entryDx=0;entryDy=0;" parent="1" source="RC5CroMytO5CbKUsDzlH-12" target="RC5CroMytO5CbKUsDzlH-15" edge="1">
          <mxGeometry relative="1" as="geometry" />
        </mxCell>
        <mxCell id="RC5CroMytO5CbKUsDzlH-12" value="4: Piece starts to disappear" style="ellipse;whiteSpace=wrap;html=1;aspect=fixed;" parent="1" vertex="1">
          <mxGeometry x="68" y="580" width="80" height="80" as="geometry" />
        </mxCell>
        <mxCell id="RC5CroMytO5CbKUsDzlH-21" value="dT" style="edgeStyle=orthogonalEdgeStyle;rounded=0;orthogonalLoop=1;jettySize=auto;html=1;entryX=0.5;entryY=1;entryDx=0;entryDy=0;" parent="1" source="RC5CroMytO5CbKUsDzlH-13" target="RC5CroMytO5CbKUsDzlH-5" edge="1">
          <mxGeometry relative="1" as="geometry">
            <Array as="points">
              <mxPoint x="-110" y="510" />
            </Array>
          </mxGeometry>
        </mxCell>
        <mxCell id="RC5CroMytO5CbKUsDzlH-13" value="3: Notify wrong choice&lt;br&gt;(highlight both red?)" style="ellipse;whiteSpace=wrap;html=1;aspect=fixed;" parent="1" vertex="1">
          <mxGeometry x="-40" y="470" width="80" height="80" as="geometry" />
        </mxCell>
        <mxCell id="RC5CroMytO5CbKUsDzlH-18" value="dT" style="edgeStyle=orthogonalEdgeStyle;rounded=0;orthogonalLoop=1;jettySize=auto;html=1;entryX=0;entryY=0.5;entryDx=0;entryDy=0;" parent="1" source="RC5CroMytO5CbKUsDzlH-15" target="RC5CroMytO5CbKUsDzlH-5" edge="1">
          <mxGeometry relative="1" as="geometry">
            <mxPoint x="-106" y="620" as="targetPoint" />
            <Array as="points">
              <mxPoint x="-190" y="620" />
              <mxPoint x="-190" y="410" />
            </Array>
          </mxGeometry>
        </mxCell>
        <mxCell id="RC5CroMytO5CbKUsDzlH-15" value="5: Transparency 100% reached&lt;br&gt;+ Word matrix" style="ellipse;whiteSpace=wrap;html=1;aspect=fixed;" parent="1" vertex="1">
          <mxGeometry x="-118.5" y="580" width="80" height="80" as="geometry" />
        </mxCell>
        <mxCell id="BiML--l_YuYtLMepY_ds-2" style="edgeStyle=orthogonalEdgeStyle;rounded=0;orthogonalLoop=1;jettySize=auto;html=1;" edge="1" parent="1" source="BiML--l_YuYtLMepY_ds-1" target="RC5CroMytO5CbKUsDzlH-5">
          <mxGeometry relative="1" as="geometry" />
        </mxCell>
        <mxCell id="BiML--l_YuYtLMepY_ds-1" value="-1: menù" style="ellipse;whiteSpace=wrap;html=1;aspect=fixed;" vertex="1" parent="1">
          <mxGeometry x="-150" y="220" width="80" height="80" as="geometry" />
        </mxCell>
        <mxCell id="BiML--l_YuYtLMepY_ds-3" value="" style="endArrow=classic;html=1;rounded=0;" edge="1" parent="1" target="BiML--l_YuYtLMepY_ds-1">
          <mxGeometry width="50" height="50" relative="1" as="geometry">
            <mxPoint y="210" as="sourcePoint" />
            <mxPoint x="40" y="220" as="targetPoint" />
          </mxGeometry>
        </mxCell>
      </root>
    </mxGraphModel>
  </diagram>
</mxfile>
